<svg width="390" height="1860" viewBox="0 0 390 1860" fill="none" xmlns="http://www.w3.org/2000/svg">
<g clip-path="url(#clip0_418_6827)">
<rect x="24" y="24" width="342" height="128" rx="16" fill="#333342"/>
<path d="M100.798 53.948H107.896V55.95H103.094V57.882H107.098V59.856H103.094V61.998H107.896V64H100.798V53.948ZM111.154 64.14C109.67 64.14 108.606 63.244 108.606 61.942C108.606 60.416 109.894 59.8 111.448 59.576L113.1 59.296V59.17C113.1 58.624 112.806 58.274 112.078 58.274C111.434 58.274 111.098 58.554 110.958 59.156L108.816 58.834C109.138 57.532 110.3 56.468 112.176 56.468C114.108 56.468 115.298 57.35 115.298 59.072V61.914C115.298 62.292 115.438 62.404 115.872 62.348V64C114.584 64.21 113.716 63.972 113.338 63.342C112.848 63.846 112.12 64.14 111.154 64.14ZM113.1 61.354V60.738L111.812 60.976C111.224 61.074 110.79 61.27 110.79 61.788C110.79 62.25 111.14 62.502 111.672 62.502C112.414 62.502 113.1 62.11 113.1 61.354ZM121.495 56.608V58.764C121.257 58.722 121.089 58.708 120.837 58.708C119.871 58.708 119.101 59.31 119.101 60.374V64H116.861V56.622H119.101V57.588C119.437 57 120.151 56.58 121.005 56.58C121.215 56.58 121.355 56.594 121.495 56.608ZM122.48 64V56.622H124.72V57.364C125.126 56.888 125.812 56.468 126.75 56.468C128.262 56.468 129.214 57.518 129.214 59.128V64H126.974V59.772C126.974 59.03 126.666 58.484 125.938 58.484C125.322 58.484 124.72 58.918 124.72 59.786V64H122.48ZM135.517 64.14C134.033 64.14 132.969 63.244 132.969 61.942C132.969 60.416 134.257 59.8 135.811 59.576L137.463 59.296V59.17C137.463 58.624 137.169 58.274 136.441 58.274C135.797 58.274 135.461 58.554 135.321 59.156L133.179 58.834C133.501 57.532 134.663 56.468 136.539 56.468C138.471 56.468 139.661 57.35 139.661 59.072V61.914C139.661 62.292 139.801 62.404 140.235 62.348V64C138.947 64.21 138.079 63.972 137.701 63.342C137.211 63.846 136.483 64.14 135.517 64.14ZM137.463 61.354V60.738L136.175 60.976C135.587 61.074 135.153 61.27 135.153 61.788C135.153 62.25 135.503 62.502 136.035 62.502C136.777 62.502 137.463 62.11 137.463 61.354ZM146.799 64.154C144.769 64.154 143.621 62.418 143.621 60.318C143.621 58.204 144.769 56.468 146.799 56.468C147.681 56.468 148.381 56.832 148.801 57.364V53.948H151.041V64H148.801V63.272C148.381 63.79 147.681 64.154 146.799 64.154ZM148.815 60.122C148.815 59.002 148.213 58.386 147.373 58.386C146.393 58.386 145.875 59.184 145.875 60.318C145.875 61.452 146.393 62.25 147.373 62.25C148.213 62.25 148.815 61.62 148.815 60.514V60.122ZM159.489 60.318C159.489 62.614 157.963 64.154 155.793 64.154C153.609 64.154 152.097 62.614 152.097 60.318C152.097 58.022 153.609 56.468 155.793 56.468C157.963 56.468 159.489 58.022 159.489 60.318ZM154.323 60.318C154.323 61.606 154.897 62.334 155.793 62.334C156.689 62.334 157.263 61.606 157.263 60.318C157.263 59.03 156.689 58.302 155.793 58.302C154.897 58.302 154.323 59.03 154.323 60.318ZM162.782 59.786V64H160.542V56.622H162.782V57.364C163.188 56.888 163.86 56.468 164.798 56.468C165.68 56.468 166.408 56.846 166.828 57.476C167.248 57.014 167.976 56.468 169.11 56.468C170.608 56.468 171.602 57.518 171.602 59.128V64H169.362V59.772C169.362 59.03 169.068 58.484 168.354 58.484C167.766 58.484 167.192 58.918 167.192 59.786V64H164.952V59.772C164.952 59.03 164.672 58.484 163.944 58.484C163.356 58.484 162.782 58.918 162.782 59.786ZM175.111 64.14C173.627 64.14 172.563 63.244 172.563 61.942C172.563 60.416 173.851 59.8 175.405 59.576L177.057 59.296V59.17C177.057 58.624 176.763 58.274 176.035 58.274C175.391 58.274 175.055 58.554 174.915 59.156L172.773 58.834C173.095 57.532 174.257 56.468 176.133 56.468C178.065 56.468 179.255 57.35 179.255 59.072V61.914C179.255 62.292 179.395 62.404 179.829 62.348V64C178.541 64.21 177.673 63.972 177.295 63.342C176.805 63.846 176.077 64.14 175.111 64.14ZM177.057 61.354V60.738L175.769 60.976C175.181 61.074 174.747 61.27 174.747 61.788C174.747 62.25 175.097 62.502 175.629 62.502C176.371 62.502 177.057 62.11 177.057 61.354ZM180.804 55.866V53.948H183.086V55.866H180.804ZM183.058 56.622V64H180.818V56.622H183.058ZM184.523 64V56.622H186.763V57.364C187.169 56.888 187.855 56.468 188.793 56.468C190.305 56.468 191.257 57.518 191.257 59.128V64H189.017V59.772C189.017 59.03 188.709 58.484 187.981 58.484C187.365 58.484 186.763 58.918 186.763 59.786V64H184.523ZM199.268 56.622H200.948L202.068 60.948L203.202 56.622H205.386L203.146 64H201.228L200.066 59.912L198.904 64H196.986L194.746 56.622H197L198.162 60.948L199.268 56.622ZM206.097 55.866V53.948H208.379V55.866H206.097ZM208.351 56.622V64H206.111V56.622H208.351ZM210.068 62.026V58.47H209.13V56.622H210.068V54.578H212.28V56.622H213.722V58.47H212.28V61.452C212.28 62.068 212.602 62.18 213.162 62.18C213.428 62.18 213.554 62.166 213.806 62.138V63.972C213.414 64.028 212.994 64.07 212.462 64.07C210.866 64.07 210.068 63.538 210.068 62.026ZM214.874 64V53.948H217.114V57.364C217.52 56.888 218.206 56.468 219.144 56.468C220.656 56.468 221.608 57.518 221.608 59.128V64H219.368V59.772C219.368 59.03 219.06 58.484 218.332 58.484C217.716 58.484 217.114 58.918 217.114 59.786V64H214.874ZM228.234 60.5V64H225.896V53.948H230.138C232.504 53.948 233.974 55.068 233.974 57.224C233.974 59.366 232.504 60.5 230.138 60.5H228.234ZM228.234 58.54H230.012C231.118 58.54 231.678 58.05 231.678 57.224C231.678 56.398 231.118 55.922 230.012 55.922H228.234V58.54ZM241.562 60.318C241.562 62.614 240.036 64.154 237.866 64.154C235.682 64.154 234.17 62.614 234.17 60.318C234.17 58.022 235.682 56.468 237.866 56.468C240.036 56.468 241.562 58.022 241.562 60.318ZM236.396 60.318C236.396 61.606 236.97 62.334 237.866 62.334C238.762 62.334 239.336 61.606 239.336 60.318C239.336 59.03 238.762 58.302 237.866 58.302C236.97 58.302 236.396 59.03 236.396 60.318ZM244.855 53.948V64H242.615V53.948H244.855ZM250.31 64.168C249.764 65.652 249.092 66.562 247.342 66.562C246.95 66.562 246.754 66.548 246.502 66.52V64.742C246.698 64.77 246.838 64.784 247.062 64.784C247.538 64.784 247.832 64.658 248.028 64.154L248.21 63.678L245.592 56.622H247.902L249.414 61.158L250.898 56.622H253.124L250.31 64.168ZM257.647 56.622H259.327L260.447 60.948L261.581 56.622H263.765L261.525 64H259.607L258.445 59.912L257.283 64H255.365L253.125 56.622H255.379L256.541 60.948L257.647 56.622ZM271.257 60.318C271.257 62.614 269.731 64.154 267.561 64.154C265.377 64.154 263.865 62.614 263.865 60.318C263.865 58.022 265.377 56.468 267.561 56.468C269.731 56.468 271.257 58.022 271.257 60.318ZM266.091 60.318C266.091 61.606 266.665 62.334 267.561 62.334C268.457 62.334 269.031 61.606 269.031 60.318C269.031 59.03 268.457 58.302 267.561 58.302C266.665 58.302 266.091 59.03 266.091 60.318ZM276.944 56.608V58.764C276.706 58.722 276.538 58.708 276.286 58.708C275.32 58.708 274.55 59.31 274.55 60.374V64H272.31V56.622H274.55V57.588C274.886 57 275.6 56.58 276.454 56.58C276.664 56.58 276.804 56.594 276.944 56.608ZM280.169 53.948V59.268L282.521 56.622H285.153L282.507 59.394L285.363 64H282.801L280.953 61.032L280.169 61.858V64H277.929V53.948H280.169ZM291.206 60.5V64H288.868V53.948H293.11C295.476 53.948 296.946 55.068 296.946 57.224C296.946 59.366 295.476 60.5 293.11 60.5H291.206ZM291.206 58.54H292.984C294.09 58.54 294.65 58.05 294.65 57.224C294.65 56.398 294.09 55.922 292.984 55.922H291.206V58.54ZM302.401 56.608V58.764C302.163 58.722 301.995 58.708 301.743 58.708C300.777 58.708 300.007 59.31 300.007 60.374V64H297.767V56.622H300.007V57.588C300.343 57 301.057 56.58 301.911 56.58C302.121 56.58 302.261 56.594 302.401 56.608ZM306.458 64.154C304.232 64.154 302.72 62.6 302.72 60.304C302.72 58.12 304.288 56.468 306.416 56.468C308.656 56.468 309.874 58.12 309.874 60.206V60.794H304.876C305.03 61.802 305.632 62.376 306.486 62.376C307.186 62.376 307.732 62.04 307.942 61.396L309.818 61.998C309.272 63.412 307.928 64.154 306.458 64.154ZM306.388 58.204C305.702 58.204 305.17 58.61 304.946 59.422H307.662C307.648 58.764 307.214 58.204 306.388 58.204ZM313.132 59.786V64H310.892V56.622H313.132V57.364C313.538 56.888 314.21 56.468 315.148 56.468C316.03 56.468 316.758 56.846 317.178 57.476C317.598 57.014 318.326 56.468 319.46 56.468C320.958 56.468 321.952 57.518 321.952 59.128V64H319.712V59.772C319.712 59.03 319.418 58.484 318.704 58.484C318.116 58.484 317.542 58.918 317.542 59.786V64H315.302V59.772C315.302 59.03 315.022 58.484 314.294 58.484C313.706 58.484 313.132 58.918 313.132 59.786ZM323.36 55.866V53.948H325.642V55.866H323.36ZM325.614 56.622V64H323.374V56.622H325.614ZM333.786 56.622V64H331.546V63.272C331.14 63.734 330.482 64.154 329.558 64.154C328.046 64.154 327.052 63.118 327.052 61.508V56.622H329.292V60.976C329.292 61.718 329.614 62.194 330.342 62.194C330.958 62.194 331.546 61.76 331.546 60.892V56.622H333.786ZM337.482 59.786V64H335.242V56.622H337.482V57.364C337.888 56.888 338.56 56.468 339.498 56.468C340.38 56.468 341.108 56.846 341.528 57.476C341.948 57.014 342.676 56.468 343.81 56.468C345.308 56.468 346.302 57.518 346.302 59.128V64H344.062V59.772C344.062 59.03 343.768 58.484 343.054 58.484C342.466 58.484 341.892 58.918 341.892 59.786V64H339.652V59.772C339.652 59.03 339.372 58.484 338.644 58.484C338.056 58.484 337.482 58.918 337.482 59.786Z" fill="#333342"/>
<path d="M100.948 83V74.384H103.684C106.3 74.384 107.956 76.064 107.956 78.692C107.956 81.32 106.3 83 103.684 83H100.948ZM102.076 82.004H103.684C105.64 82.004 106.828 80.696 106.828 78.692C106.828 76.676 105.64 75.38 103.672 75.38H102.076V82.004ZM114.714 79.868C114.714 81.812 113.514 83.132 111.798 83.132C110.082 83.132 108.882 81.812 108.882 79.868C108.882 77.924 110.082 76.604 111.798 76.604C113.514 76.604 114.714 77.924 114.714 79.868ZM109.974 79.868C109.974 81.296 110.694 82.208 111.798 82.208C112.902 82.208 113.622 81.296 113.622 79.868C113.622 78.428 112.902 77.516 111.798 77.516C110.694 77.516 109.974 78.428 109.974 79.868ZM117.168 79.244V83H116.088V76.724H117.168V77.576C117.504 77.06 118.104 76.604 118.98 76.604C119.82 76.604 120.408 77.024 120.72 77.672C121.068 77.156 121.74 76.604 122.724 76.604C124.02 76.604 124.8 77.528 124.8 78.86V83H123.72V79.148C123.72 78.272 123.36 77.612 122.472 77.612C121.752 77.612 120.984 78.224 120.984 79.244V83H119.904V79.148C119.904 78.272 119.544 77.612 118.656 77.612C117.936 77.612 117.168 78.224 117.168 79.244ZM128.113 83.108C126.973 83.108 126.049 82.436 126.049 81.308C126.049 80.06 127.021 79.544 128.425 79.256L129.949 78.944V78.68C129.949 77.96 129.553 77.552 128.713 77.552C127.921 77.552 127.453 77.924 127.261 78.62L126.241 78.356C126.541 77.336 127.465 76.604 128.749 76.604C130.153 76.604 131.017 77.288 131.017 78.632V81.692C131.017 82.1 131.269 82.232 131.689 82.136V83C130.729 83.12 130.177 82.892 130.045 82.292C129.661 82.784 128.965 83.108 128.113 83.108ZM129.949 80.864V79.784L128.725 80.048C127.765 80.24 127.117 80.504 127.117 81.26C127.117 81.872 127.561 82.232 128.245 82.232C129.169 82.232 129.949 81.668 129.949 80.864ZM132.809 75.632V74.384H133.985V75.632H132.809ZM133.937 76.724V83H132.857V76.724H133.937ZM135.74 83V76.724H136.82V77.576C137.18 77.06 137.804 76.604 138.692 76.604C140.024 76.604 140.78 77.528 140.78 78.86V83H139.7V79.148C139.7 78.272 139.328 77.612 138.392 77.612C137.612 77.612 136.82 78.212 136.82 79.256V83H135.74ZM141.817 81.668L142.657 81.056C142.993 81.788 143.761 82.232 144.577 82.232C145.309 82.232 145.957 81.92 145.957 81.236C145.957 80.552 145.357 80.456 144.325 80.24C143.293 80.012 142.213 79.784 142.213 78.5C142.213 77.384 143.185 76.604 144.517 76.604C145.645 76.604 146.569 77.156 146.941 77.9L146.173 78.512C145.849 77.888 145.261 77.492 144.469 77.492C143.749 77.492 143.269 77.852 143.269 78.416C143.269 79.004 143.821 79.112 144.697 79.304C145.777 79.556 147.013 79.772 147.013 81.14C147.013 82.34 145.921 83.132 144.577 83.132C143.437 83.132 142.297 82.64 141.817 81.668ZM153.868 76.724H154.78L156.076 81.404L157.384 76.724H158.464L156.556 83H155.608L154.3 78.344L152.992 83H152.044L150.136 76.724H151.252L152.572 81.392L153.868 76.724ZM164.8 79.868C164.8 81.812 163.6 83.132 161.884 83.132C160.168 83.132 158.968 81.812 158.968 79.868C158.968 77.924 160.168 76.604 161.884 76.604C163.6 76.604 164.8 77.924 164.8 79.868ZM160.06 79.868C160.06 81.296 160.78 82.208 161.884 82.208C162.988 82.208 163.708 81.296 163.708 79.868C163.708 78.428 162.988 77.516 161.884 77.516C160.78 77.516 160.06 78.428 160.06 79.868ZM169.425 76.7V77.792C169.245 77.756 169.101 77.744 168.897 77.744C167.985 77.744 167.253 78.464 167.253 79.568V83H166.173V76.724H167.253V77.792C167.529 77.156 168.141 76.676 168.993 76.676C169.161 76.676 169.317 76.688 169.425 76.7ZM170.853 81.5V77.648H169.881V76.724H170.853V74.888H171.921V76.724H173.349V77.648H171.921V81.332C171.921 81.992 172.245 82.112 172.797 82.112C173.049 82.112 173.229 82.1 173.481 82.04V82.964C173.205 83.024 172.893 83.06 172.533 83.06C171.465 83.06 170.853 82.7 170.853 81.5ZM174.763 83V74.384H175.843V77.576C176.203 77.06 176.827 76.604 177.715 76.604C179.047 76.604 179.803 77.528 179.803 78.86V83H178.723V79.148C178.723 78.272 178.351 77.612 177.415 77.612C176.635 77.612 175.843 78.212 175.843 79.256V83H174.763ZM189.048 76.724V83H187.968V82.136C187.608 82.664 186.996 83.132 186.108 83.132C184.764 83.132 184.008 82.208 184.008 80.876V76.724H185.088V80.648C185.088 81.536 185.472 82.136 186.396 82.136C187.176 82.136 187.968 81.548 187.968 80.504V76.724H189.048ZM193.865 83.132C192.989 83.132 192.293 82.712 191.921 82.088V85.16H190.841V76.724H191.921V77.636C192.293 77.024 192.989 76.604 193.865 76.604C195.605 76.604 196.601 78.08 196.601 79.868C196.601 81.644 195.605 83.132 193.865 83.132ZM191.897 79.652V80.096C191.897 81.536 192.785 82.184 193.673 82.184C194.849 82.184 195.509 81.212 195.509 79.868C195.509 78.512 194.849 77.552 193.673 77.552C192.785 77.552 191.897 78.188 191.897 79.652ZM200.666 81.5V77.648H199.694V76.724H200.666V74.888H201.734V76.724H203.162V77.648H201.734V81.332C201.734 81.992 202.058 82.112 202.61 82.112C202.862 82.112 203.042 82.1 203.294 82.04V82.964C203.018 83.024 202.706 83.06 202.346 83.06C201.278 83.06 200.666 82.7 200.666 81.5ZM209.941 79.868C209.941 81.812 208.741 83.132 207.025 83.132C205.309 83.132 204.109 81.812 204.109 79.868C204.109 77.924 205.309 76.604 207.025 76.604C208.741 76.604 209.941 77.924 209.941 79.868ZM205.201 79.868C205.201 81.296 205.921 82.208 207.025 82.208C208.129 82.208 208.849 81.296 208.849 79.868C208.849 78.428 208.129 77.516 207.025 77.516C205.921 77.516 205.201 78.428 205.201 79.868ZM213.017 81.236L213.881 80.516C214.361 81.452 215.105 81.98 216.077 82.088V79.004C214.769 78.728 213.425 78.356 213.425 76.748C213.425 75.368 214.589 74.432 216.077 74.312V73.172H216.953V74.324C218.189 74.468 219.125 75.08 219.569 75.968L218.741 76.664C218.369 75.932 217.781 75.428 216.953 75.284V78.14C218.273 78.416 219.629 78.812 219.629 80.504C219.629 81.944 218.465 82.892 216.953 83.06V84.224H216.077V83.072C214.709 82.952 213.557 82.268 213.017 81.236ZM214.481 76.676C214.481 77.468 215.189 77.756 216.077 77.948V75.26C215.153 75.356 214.481 75.884 214.481 76.676ZM218.573 80.576C218.573 79.724 217.853 79.412 216.953 79.196V82.088C217.877 81.968 218.573 81.476 218.573 80.576ZM220.279 82.052L222.823 79.94C223.999 78.968 224.911 78.14 224.911 77.012C224.911 75.956 224.227 75.236 223.171 75.236C222.139 75.236 221.431 76.028 221.431 77.012C221.431 77.324 221.503 77.648 221.623 77.948H220.543C220.411 77.576 220.351 77.288 220.351 76.952C220.351 75.416 221.611 74.252 223.195 74.252C224.935 74.252 226.039 75.356 226.039 76.94C226.039 78.404 225.031 79.412 223.795 80.408L221.851 81.992H226.207V83H220.279V82.052ZM226.96 78.692C226.96 76.064 228.196 74.252 230.248 74.252C232.288 74.252 233.524 76.064 233.524 78.692C233.524 81.32 232.288 83.132 230.248 83.132C228.196 83.132 226.96 81.32 226.96 78.692ZM228.112 78.692C228.112 80.708 228.844 82.124 230.248 82.124C231.64 82.124 232.384 80.708 232.384 78.692C232.384 76.676 231.64 75.26 230.248 75.26C228.844 75.26 228.112 76.676 228.112 78.692ZM233.597 84.176L237.077 74.144H238.181L234.701 84.176H233.597ZM241.298 83.684C240.938 84.632 240.446 85.232 239.354 85.232C239.09 85.232 238.958 85.22 238.766 85.184V84.248C238.97 84.296 239.102 84.308 239.282 84.308C239.75 84.308 240.002 84.14 240.254 83.516L240.554 82.772L238.226 76.724H239.366L241.13 81.524L242.87 76.724H243.998L241.298 83.684ZM247.326 83.132C245.586 83.132 244.386 81.8 244.386 79.868C244.386 77.996 245.574 76.604 247.278 76.604C249.03 76.604 249.954 77.936 249.954 79.676V80.036H245.418C245.478 81.356 246.234 82.196 247.326 82.196C248.166 82.196 248.766 81.74 248.958 80.996L249.906 81.332C249.522 82.448 248.574 83.132 247.326 83.132ZM247.266 77.528C246.354 77.528 245.67 78.14 245.478 79.208H248.862C248.838 78.32 248.358 77.528 247.266 77.528ZM252.941 83.108C251.801 83.108 250.877 82.436 250.877 81.308C250.877 80.06 251.849 79.544 253.253 79.256L254.777 78.944V78.68C254.777 77.96 254.381 77.552 253.541 77.552C252.749 77.552 252.281 77.924 252.089 78.62L251.069 78.356C251.369 77.336 252.293 76.604 253.577 76.604C254.981 76.604 255.845 77.288 255.845 78.632V81.692C255.845 82.1 256.097 82.232 256.517 82.136V83C255.557 83.12 255.005 82.892 254.873 82.292C254.489 82.784 253.793 83.108 252.941 83.108ZM254.777 80.864V79.784L253.553 80.048C252.593 80.24 251.945 80.504 251.945 81.26C251.945 81.872 252.389 82.232 253.073 82.232C253.997 82.232 254.777 81.668 254.777 80.864ZM260.937 76.7V77.792C260.757 77.756 260.613 77.744 260.409 77.744C259.497 77.744 258.765 78.464 258.765 79.568V83H257.685V76.724H258.765V77.792C259.041 77.156 259.653 76.676 260.505 76.676C260.673 76.676 260.829 76.688 260.937 76.7ZM265.738 74.384V83H264.658V74.384H265.738ZM267.493 75.632V74.384H268.669V75.632H267.493ZM268.621 76.724V83H267.541V76.724H268.621ZM271.503 74.384V79.652L274.287 76.724H275.631L273.183 79.196L275.835 83H274.575L272.415 79.976L271.503 80.9V83H270.423V74.384H271.503ZM279.084 83.132C277.344 83.132 276.144 81.8 276.144 79.868C276.144 77.996 277.332 76.604 279.036 76.604C280.788 76.604 281.712 77.936 281.712 79.676V80.036H277.176C277.236 81.356 277.992 82.196 279.084 82.196C279.924 82.196 280.524 81.74 280.716 80.996L281.664 81.332C281.28 82.448 280.332 83.132 279.084 83.132ZM279.024 77.528C278.112 77.528 277.428 78.14 277.236 79.208H280.62C280.596 78.32 280.116 77.528 279.024 77.528ZM103.06 103.132C101.32 103.132 100.312 101.644 100.312 99.844C100.312 98.056 101.32 96.568 103.06 96.568C103.852 96.568 104.452 96.88 104.824 97.336V94.384H106.504V103H104.824V102.352C104.452 102.82 103.852 103.132 103.06 103.132ZM104.86 99.676C104.86 98.596 104.26 98.008 103.456 98.008C102.508 98.008 102.004 98.764 102.004 99.844C102.004 100.936 102.508 101.692 103.456 101.692C104.26 101.692 104.86 101.092 104.86 100.024V99.676ZM110.651 103.132C108.791 103.132 107.519 101.8 107.519 99.844C107.519 97.984 108.803 96.568 110.591 96.568C112.463 96.568 113.471 97.96 113.471 99.724V100.216H109.127C109.247 101.176 109.835 101.752 110.663 101.752C111.311 101.752 111.827 101.44 112.019 100.828L113.435 101.332C112.979 102.484 111.911 103.132 110.651 103.132ZM110.579 97.912C109.907 97.912 109.391 98.308 109.187 99.076H111.803C111.791 98.452 111.395 97.912 110.579 97.912ZM117.589 103H115.909L113.617 96.688H115.357L116.773 100.96L118.177 96.688H119.869L117.589 103ZM120.559 95.944V94.384H122.275V95.944H120.559ZM122.263 96.688V103H120.583V96.688H122.263ZM123.641 103V96.688H125.321V97.336C125.669 96.928 126.245 96.568 127.049 96.568C128.369 96.568 129.173 97.468 129.173 98.836V103H127.493V99.316C127.493 98.608 127.205 98.104 126.485 98.104C125.897 98.104 125.321 98.524 125.321 99.352V103H123.641ZM130.52 103V94.384H132.2V97.336C132.548 96.928 133.124 96.568 133.928 96.568C135.248 96.568 136.052 97.468 136.052 98.836V103H134.372V99.316C134.372 98.608 134.084 98.104 133.364 98.104C132.776 98.104 132.2 98.524 132.2 99.352V103H130.52ZM143.219 99.844C143.219 101.812 141.947 103.132 140.123 103.132C138.299 103.132 137.027 101.812 137.027 99.844C137.027 97.888 138.299 96.568 140.123 96.568C141.947 96.568 143.219 97.888 143.219 99.844ZM138.695 99.844C138.695 101.044 139.247 101.74 140.123 101.74C140.999 101.74 141.539 101.044 141.539 99.844C141.539 98.656 140.999 97.96 140.123 97.96C139.247 97.96 138.695 98.656 138.695 99.844ZM145.923 99.352V103H144.243V96.688H145.923V97.336C146.259 96.928 146.823 96.568 147.639 96.568C148.407 96.568 148.995 96.892 149.343 97.432C149.727 97.036 150.327 96.568 151.299 96.568C152.595 96.568 153.435 97.468 153.435 98.836V103H151.755V99.316C151.755 98.608 151.491 98.104 150.795 98.104C150.243 98.104 149.679 98.524 149.679 99.352V103H147.999V99.316C147.999 98.608 147.735 98.104 147.039 98.104C146.487 98.104 145.923 98.524 145.923 99.352ZM156.47 99.352V103H154.79V96.688H156.47V97.336C156.806 96.928 157.37 96.568 158.186 96.568C158.954 96.568 159.542 96.892 159.89 97.432C160.274 97.036 160.874 96.568 161.846 96.568C163.142 96.568 163.982 97.468 163.982 98.836V103H162.302V99.316C162.302 98.608 162.038 98.104 161.342 98.104C160.79 98.104 160.226 98.524 160.226 99.352V103H158.546V99.316C158.546 98.608 158.282 98.104 157.586 98.104C157.034 98.104 156.47 98.524 156.47 99.352ZM168.097 103.132C166.237 103.132 164.965 101.8 164.965 99.844C164.965 97.984 166.249 96.568 168.037 96.568C169.909 96.568 170.917 97.96 170.917 99.724V100.216H166.573C166.693 101.176 167.281 101.752 168.109 101.752C168.757 101.752 169.273 101.44 169.465 100.828L170.881 101.332C170.425 102.484 169.357 103.132 168.097 103.132ZM168.025 97.912C167.353 97.912 166.837 98.308 166.633 99.076H169.249C169.237 98.452 168.841 97.912 168.025 97.912ZM173.591 94.384V103H171.911V94.384H173.591ZM174.729 103V101.056H176.697V103H174.729ZM181.296 103.132C180.504 103.132 179.904 102.82 179.532 102.352V103H177.852V94.384H179.532V97.336C179.904 96.88 180.504 96.568 181.296 96.568C183.036 96.568 184.044 98.056 184.044 99.844C184.044 101.644 183.036 103.132 181.296 103.132ZM179.496 99.676V100.024C179.496 101.092 180.096 101.692 180.9 101.692C181.848 101.692 182.352 100.936 182.352 99.844C182.352 98.764 181.848 98.008 180.9 98.008C180.096 98.008 179.496 98.596 179.496 99.676ZM185.024 95.944V94.384H186.74V95.944H185.024ZM186.728 96.688V103H185.048V96.688H186.728ZM193.074 101.596V103H187.818V101.764L191.022 98.092H187.854V96.688H193.038V97.936L189.942 101.596H193.074ZM198.495 103.108C197.355 103.108 196.431 102.436 196.431 101.308C196.431 100.06 197.403 99.544 198.807 99.256L200.331 98.944V98.68C200.331 97.96 199.935 97.552 199.095 97.552C198.303 97.552 197.835 97.924 197.643 98.62L196.623 98.356C196.923 97.336 197.847 96.604 199.131 96.604C200.535 96.604 201.399 97.288 201.399 98.632V101.692C201.399 102.1 201.651 102.232 202.071 102.136V103C201.111 103.12 200.559 102.892 200.427 102.292C200.043 102.784 199.347 103.108 198.495 103.108ZM200.331 100.864V99.784L199.107 100.048C198.147 100.24 197.499 100.504 197.499 101.26C197.499 101.872 197.943 102.232 198.627 102.232C199.551 102.232 200.331 101.668 200.331 100.864ZM206.492 96.7V97.792C206.312 97.756 206.168 97.744 205.964 97.744C205.052 97.744 204.32 98.464 204.32 99.568V103H203.24V96.724H204.32V97.792C204.596 97.156 205.208 96.676 206.06 96.676C206.228 96.676 206.384 96.688 206.492 96.7ZM209.931 103.132C208.191 103.132 206.991 101.8 206.991 99.868C206.991 97.996 208.179 96.604 209.883 96.604C211.635 96.604 212.559 97.936 212.559 99.676V100.036H208.023C208.083 101.356 208.839 102.196 209.931 102.196C210.771 102.196 211.371 101.74 211.563 100.996L212.511 101.332C212.127 102.448 211.179 103.132 209.931 103.132ZM209.871 97.528C208.959 97.528 208.275 98.14 208.083 99.208H211.467C211.443 98.32 210.963 97.528 209.871 97.528ZM219.134 101.5V97.648H218.162V96.724H219.134V94.888H220.202V96.724H221.63V97.648H220.202V101.332C220.202 101.992 220.526 102.112 221.078 102.112C221.33 102.112 221.51 102.1 221.762 102.04V102.964C221.486 103.024 221.174 103.06 220.814 103.06C219.746 103.06 219.134 102.7 219.134 101.5ZM223.045 103V94.384H224.125V97.576C224.485 97.06 225.109 96.604 225.997 96.604C227.329 96.604 228.085 97.528 228.085 98.86V103H227.005V99.148C227.005 98.272 226.633 97.612 225.697 97.612C224.917 97.612 224.125 98.212 224.125 99.256V103H223.045ZM231.39 103.108C230.25 103.108 229.326 102.436 229.326 101.308C229.326 100.06 230.298 99.544 231.702 99.256L233.226 98.944V98.68C233.226 97.96 232.83 97.552 231.99 97.552C231.198 97.552 230.73 97.924 230.538 98.62L229.518 98.356C229.818 97.336 230.742 96.604 232.026 96.604C233.43 96.604 234.294 97.288 234.294 98.632V101.692C234.294 102.1 234.546 102.232 234.966 102.136V103C234.006 103.12 233.454 102.892 233.322 102.292C232.938 102.784 232.242 103.108 231.39 103.108ZM233.226 100.864V99.784L232.002 100.048C231.042 100.24 230.394 100.504 230.394 101.26C230.394 101.872 230.838 102.232 231.522 102.232C232.446 102.232 233.226 101.668 233.226 100.864ZM236.302 101.5V97.648H235.33V96.724H236.302V94.888H237.37V96.724H238.798V97.648H237.37V101.332C237.37 101.992 237.694 102.112 238.246 102.112C238.498 102.112 238.678 102.1 238.93 102.04V102.964C238.654 103.024 238.342 103.06 237.982 103.06C236.914 103.06 236.302 102.7 236.302 101.5ZM244.316 103.108C243.176 103.108 242.252 102.436 242.252 101.308C242.252 100.06 243.224 99.544 244.628 99.256L246.152 98.944V98.68C246.152 97.96 245.756 97.552 244.916 97.552C244.124 97.552 243.656 97.924 243.464 98.62L242.444 98.356C242.744 97.336 243.668 96.604 244.952 96.604C246.356 96.604 247.22 97.288 247.22 98.632V101.692C247.22 102.1 247.472 102.232 247.892 102.136V103C246.932 103.12 246.38 102.892 246.248 102.292C245.864 102.784 245.168 103.108 244.316 103.108ZM246.152 100.864V99.784L244.928 100.048C243.968 100.24 243.32 100.504 243.32 101.26C243.32 101.872 243.764 102.232 244.448 102.232C245.372 102.232 246.152 101.668 246.152 100.864ZM252.312 96.7V97.792C252.132 97.756 251.988 97.744 251.784 97.744C250.872 97.744 250.14 98.464 250.14 99.568V103H249.06V96.724H250.14V97.792C250.416 97.156 251.028 96.676 251.88 96.676C252.048 96.676 252.204 96.688 252.312 96.7ZM255.752 103.132C254.012 103.132 252.812 101.8 252.812 99.868C252.812 97.996 254 96.604 255.704 96.604C257.456 96.604 258.38 97.936 258.38 99.676V100.036H253.844C253.904 101.356 254.66 102.196 255.752 102.196C256.592 102.196 257.192 101.74 257.384 100.996L258.332 101.332C257.948 102.448 257 103.132 255.752 103.132ZM255.692 97.528C254.78 97.528 254.096 98.14 253.904 99.208H257.288C257.264 98.32 256.784 97.528 255.692 97.528ZM263.827 103.108C262.687 103.108 261.763 102.436 261.763 101.308C261.763 100.06 262.735 99.544 264.139 99.256L265.663 98.944V98.68C265.663 97.96 265.267 97.552 264.427 97.552C263.635 97.552 263.167 97.924 262.975 98.62L261.955 98.356C262.255 97.336 263.179 96.604 264.463 96.604C265.867 96.604 266.731 97.288 266.731 98.632V101.692C266.731 102.1 266.983 102.232 267.403 102.136V103C266.443 103.12 265.891 102.892 265.759 102.292C265.375 102.784 264.679 103.108 263.827 103.108ZM265.663 100.864V99.784L264.439 100.048C263.479 100.24 262.831 100.504 262.831 101.26C262.831 101.872 263.275 102.232 263.959 102.232C264.883 102.232 265.663 101.668 265.663 100.864ZM271.096 103H270.028L267.676 96.724H268.816L270.58 101.68L272.32 96.724H273.448L271.096 103ZM275.898 103.108C274.758 103.108 273.834 102.436 273.834 101.308C273.834 100.06 274.806 99.544 276.21 99.256L277.734 98.944V98.68C277.734 97.96 277.338 97.552 276.498 97.552C275.706 97.552 275.238 97.924 275.046 98.62L274.026 98.356C274.326 97.336 275.25 96.604 276.534 96.604C277.938 96.604 278.802 97.288 278.802 98.632V101.692C278.802 102.1 279.054 102.232 279.474 102.136V103C278.514 103.12 277.962 102.892 277.83 102.292C277.446 102.784 276.75 103.108 275.898 103.108ZM277.734 100.864V99.784L276.51 100.048C275.55 100.24 274.902 100.504 274.902 101.26C274.902 101.872 275.346 102.232 276.03 102.232C276.954 102.232 277.734 101.668 277.734 100.864ZM280.594 95.632V94.384H281.77V95.632H280.594ZM281.722 96.724V103H280.642V96.724H281.722ZM284.605 94.384V103H283.525V94.384H284.605ZM287.98 103.108C286.84 103.108 285.916 102.436 285.916 101.308C285.916 100.06 286.888 99.544 288.292 99.256L289.816 98.944V98.68C289.816 97.96 289.42 97.552 288.58 97.552C287.788 97.552 287.32 97.924 287.128 98.62L286.108 98.356C286.408 97.336 287.332 96.604 288.616 96.604C290.02 96.604 290.884 97.288 290.884 98.632V101.692C290.884 102.1 291.136 102.232 291.556 102.136V103C290.596 103.12 290.044 102.892 289.912 102.292C289.528 102.784 288.832 103.108 287.98 103.108ZM289.816 100.864V99.784L288.592 100.048C287.632 100.24 286.984 100.504 286.984 101.26C286.984 101.872 287.428 102.232 288.112 102.232C289.036 102.232 289.816 101.668 289.816 100.864ZM295.748 103.132C294.872 103.132 294.176 102.712 293.804 102.088V103H292.724V94.384H293.804V97.636C294.176 97.024 294.872 96.604 295.748 96.604C297.488 96.604 298.484 98.08 298.484 99.868C298.484 101.644 297.488 103.132 295.748 103.132ZM293.78 99.652V100.096C293.78 101.536 294.668 102.184 295.556 102.184C296.732 102.184 297.392 101.212 297.392 99.868C297.392 98.512 296.732 97.552 295.556 97.552C294.668 97.552 293.78 98.188 293.78 99.652ZM300.929 94.384V103H299.849V94.384H300.929ZM305.24 103.132C303.5 103.132 302.3 101.8 302.3 99.868C302.3 97.996 303.488 96.604 305.192 96.604C306.944 96.604 307.868 97.936 307.868 99.676V100.036H303.332C303.392 101.356 304.148 102.196 305.24 102.196C306.08 102.196 306.68 101.74 306.872 100.996L307.82 101.332C307.436 102.448 306.488 103.132 305.24 103.132ZM305.18 97.528C304.268 97.528 303.584 98.14 303.392 99.208H306.776C306.752 98.32 306.272 97.528 305.18 97.528ZM314.48 94.276V95.236C314.3 95.212 314.192 95.212 314.012 95.212C313.376 95.212 313.028 95.488 313.028 96.292V96.724H314.42V97.648H313.028V103H311.948V97.648H311V96.724H311.948V96.22C311.948 94.996 312.62 94.252 313.904 94.252C314.12 94.252 314.24 94.264 314.48 94.276ZM320.788 99.868C320.788 101.812 319.588 103.132 317.872 103.132C316.156 103.132 314.956 101.812 314.956 99.868C314.956 97.924 316.156 96.604 317.872 96.604C319.588 96.604 320.788 97.924 320.788 99.868ZM316.048 99.868C316.048 101.296 316.768 102.208 317.872 102.208C318.976 102.208 319.696 101.296 319.696 99.868C319.696 98.428 318.976 97.516 317.872 97.516C316.768 97.516 316.048 98.428 316.048 99.868ZM325.414 96.7V97.792C325.234 97.756 325.09 97.744 324.886 97.744C323.974 97.744 323.242 98.464 323.242 99.568V103H322.162V96.724H323.242V97.792C323.518 97.156 324.13 96.676 324.982 96.676C325.15 96.676 325.306 96.688 325.414 96.7ZM103.636 114.276V115.236C103.456 115.212 103.348 115.212 103.168 115.212C102.532 115.212 102.184 115.488 102.184 116.292V116.724H103.576V117.648H102.184V123H101.104V117.648H100.156V116.724H101.104V116.22C101.104 114.996 101.776 114.252 103.06 114.252C103.276 114.252 103.396 114.264 103.636 114.276ZM107.832 116.7V117.792C107.652 117.756 107.508 117.744 107.304 117.744C106.392 117.744 105.66 118.464 105.66 119.568V123H104.58V116.724H105.66V117.792C105.936 117.156 106.548 116.676 107.4 116.676C107.568 116.676 107.724 116.688 107.832 116.7ZM111.271 123.132C109.531 123.132 108.331 121.8 108.331 119.868C108.331 117.996 109.519 116.604 111.223 116.604C112.975 116.604 113.899 117.936 113.899 119.676V120.036H109.363C109.423 121.356 110.179 122.196 111.271 122.196C112.111 122.196 112.711 121.74 112.903 120.996L113.851 121.332C113.467 122.448 112.519 123.132 111.271 123.132ZM111.211 117.528C110.299 117.528 109.615 118.14 109.423 119.208H112.807C112.783 118.32 112.303 117.528 111.211 117.528ZM117.752 123.132C116.012 123.132 114.812 121.8 114.812 119.868C114.812 117.996 116 116.604 117.704 116.604C119.456 116.604 120.38 117.936 120.38 119.676V120.036H115.844C115.904 121.356 116.66 122.196 117.752 122.196C118.592 122.196 119.192 121.74 119.384 120.996L120.332 121.332C119.948 122.448 119 123.132 117.752 123.132ZM117.692 117.528C116.78 117.528 116.096 118.14 115.904 119.208H119.288C119.264 118.32 118.784 117.528 117.692 117.528ZM127.243 116.724H128.155L129.451 121.404L130.759 116.724H131.839L129.931 123H128.983L127.675 118.344L126.367 123H125.419L123.511 116.724H124.627L125.947 121.392L127.243 116.724ZM132.844 115.632V114.384H134.02V115.632H132.844ZM133.972 116.724V123H132.892V116.724H133.972ZM135.943 121.5V117.648H134.971V116.724H135.943V114.888H137.011V116.724H138.439V117.648H137.011V121.332C137.011 121.992 137.335 122.112 137.887 122.112C138.139 122.112 138.319 122.1 138.571 122.04V122.964C138.295 123.024 137.983 123.06 137.623 123.06C136.555 123.06 135.943 122.7 135.943 121.5ZM139.853 123V114.384H140.933V117.576C141.293 117.06 141.917 116.604 142.805 116.604C144.137 116.604 144.893 117.528 144.893 118.86V123H143.813V119.148C143.813 118.272 143.441 117.612 142.505 117.612C141.725 117.612 140.933 118.212 140.933 119.256V123H139.853ZM150.358 119.388V123H149.206V114.384H152.494C154.318 114.384 155.482 115.236 155.482 116.88C155.482 118.5 154.318 119.388 152.494 119.388H150.358ZM150.358 118.392H152.434C153.658 118.392 154.342 117.852 154.342 116.88C154.342 115.908 153.658 115.38 152.434 115.38H150.358V118.392ZM161.741 119.868C161.741 121.812 160.541 123.132 158.825 123.132C157.109 123.132 155.909 121.812 155.909 119.868C155.909 117.924 157.109 116.604 158.825 116.604C160.541 116.604 161.741 117.924 161.741 119.868ZM157.001 119.868C157.001 121.296 157.721 122.208 158.825 122.208C159.929 122.208 160.649 121.296 160.649 119.868C160.649 118.428 159.929 117.516 158.825 117.516C157.721 117.516 157.001 118.428 157.001 119.868ZM164.195 114.384V123H163.115V114.384H164.195ZM168.326 123.684C167.966 124.632 167.474 125.232 166.382 125.232C166.118 125.232 165.986 125.22 165.794 125.184V124.248C165.998 124.296 166.13 124.308 166.31 124.308C166.778 124.308 167.03 124.14 167.282 123.516L167.582 122.772L165.254 116.724H166.394L168.158 121.524L169.898 116.724H171.026L168.326 123.684ZM175.068 116.724H175.98L177.276 121.404L178.584 116.724H179.664L177.756 123H176.808L175.5 118.344L174.192 123H173.244L171.336 116.724H172.452L173.772 121.392L175.068 116.724ZM185.999 119.868C185.999 121.812 184.799 123.132 183.083 123.132C181.367 123.132 180.167 121.812 180.167 119.868C180.167 117.924 181.367 116.604 183.083 116.604C184.799 116.604 185.999 117.924 185.999 119.868ZM181.259 119.868C181.259 121.296 181.979 122.208 183.083 122.208C184.187 122.208 184.907 121.296 184.907 119.868C184.907 118.428 184.187 117.516 183.083 117.516C181.979 117.516 181.259 118.428 181.259 119.868ZM190.625 116.7V117.792C190.445 117.756 190.301 117.744 190.097 117.744C189.185 117.744 188.453 118.464 188.453 119.568V123H187.373V116.724H188.453V117.792C188.729 117.156 189.341 116.676 190.193 116.676C190.361 116.676 190.517 116.688 190.625 116.7ZM192.894 114.384V119.652L195.678 116.724H197.022L194.574 119.196L197.226 123H195.966L193.806 119.976L192.894 120.9V123H191.814V114.384H192.894ZM201.955 119.388V123H200.803V114.384H204.091C205.915 114.384 207.079 115.236 207.079 116.88C207.079 118.5 205.915 119.388 204.091 119.388H201.955ZM201.955 118.392H204.031C205.255 118.392 205.939 117.852 205.939 116.88C205.939 115.908 205.255 115.38 204.031 115.38H201.955V118.392ZM211.355 116.7V117.792C211.175 117.756 211.031 117.744 210.827 117.744C209.915 117.744 209.183 118.464 209.183 119.568V123H208.103V116.724H209.183V117.792C209.459 117.156 210.071 116.676 210.923 116.676C211.091 116.676 211.247 116.688 211.355 116.7ZM214.795 123.132C213.055 123.132 211.855 121.8 211.855 119.868C211.855 117.996 213.043 116.604 214.747 116.604C216.499 116.604 217.423 117.936 217.423 119.676V120.036H212.887C212.947 121.356 213.703 122.196 214.795 122.196C215.635 122.196 216.235 121.74 216.427 120.996L217.375 121.332C216.991 122.448 216.043 123.132 214.795 123.132ZM214.735 117.528C213.823 117.528 213.139 118.14 212.947 119.208H216.331C216.307 118.32 215.827 117.528 214.735 117.528ZM219.847 119.244V123H218.767V116.724H219.847V117.576C220.183 117.06 220.783 116.604 221.659 116.604C222.499 116.604 223.087 117.024 223.399 117.672C223.747 117.156 224.419 116.604 225.403 116.604C226.699 116.604 227.479 117.528 227.479 118.86V123H226.399V119.148C226.399 118.272 226.039 117.612 225.151 117.612C224.431 117.612 223.663 118.224 223.663 119.244V123H222.583V119.148C222.583 118.272 222.223 117.612 221.335 117.612C220.615 117.612 219.847 118.224 219.847 119.244ZM229.172 115.632V114.384H230.348V115.632H229.172ZM230.3 116.724V123H229.22V116.724H230.3ZM237.083 116.724V123H236.003V122.136C235.643 122.664 235.031 123.132 234.143 123.132C232.799 123.132 232.043 122.208 232.043 120.876V116.724H233.123V120.648C233.123 121.536 233.507 122.136 234.431 122.136C235.211 122.136 236.003 121.548 236.003 120.504V116.724H237.083ZM239.957 119.244V123H238.877V116.724H239.957V117.576C240.293 117.06 240.893 116.604 241.769 116.604C242.609 116.604 243.197 117.024 243.509 117.672C243.857 117.156 244.529 116.604 245.513 116.604C246.809 116.604 247.589 117.528 247.589 118.86V123H246.509V119.148C246.509 118.272 246.149 117.612 245.261 117.612C244.541 117.612 243.773 118.224 243.773 119.244V123H242.693V119.148C242.693 118.272 242.333 117.612 241.445 117.612C240.725 117.612 239.957 118.224 239.957 119.244Z" fill="#333342"/>
</g>
<rect x="24" y="168" width="342" height="28" rx="8" fill="#333342"/>
<rect x="23.5" y="219.5" width="343" height="257" rx="16.5" fill="#333342"/>
<g clip-path="url(#clip1_418_6827)">
<mask id="path-6-outside-1_418_6827" maskUnits="userSpaceOnUse" x="24" y="220" width="342" height="201" fill="black">
<rect fill="white" x="24" y="220" width="342" height="201"/>
<path d="M24 220H366V420H24V220Z"/>
</mask>
<path d="M24 220H366V420H24V220Z" fill="#333342"/>
<path d="M24 228C24 223.582 27.5817 220 32 220H358C362.418 220 366 223.582 366 228V420H24V228Z" fill="#333342"/>
</g>
<path d="M24 220H366H24ZM366 421H24V419H366V421ZM24 420V220V420ZM366 220V420V220Z" fill="#333342" mask="url(#path-6-outside-1_418_6827)"/>
<rect x="23.5" y="219.5" width="343" height="257" rx="16.5" stroke="#333342"/>
<rect x="23.5" y="499.5" width="343" height="257" rx="16.5" fill="#333342"/>
<g clip-path="url(#clip2_418_6827)">
<mask id="path-10-outside-2_418_6827" maskUnits="userSpaceOnUse" x="24" y="500" width="342" height="201" fill="black">
<rect fill="white" x="24" y="500" width="342" height="201"/>
<path d="M24 500H366V700H24V500Z"/>
</mask>
<path d="M24 500H366V700H24V500Z" fill="#333342"/>
<path d="M24 508C24 503.582 27.5817 500 32 500H358C362.418 500 366 503.582 366 508V700H24V508Z" fill="#333342"/>
</g>
<path d="M24 500H366H24ZM366 701H24V699H366V701ZM24 700V500V700ZM366 500V700V500Z" fill="#333342" mask="url(#path-10-outside-2_418_6827)"/>
<rect x="23.5" y="499.5" width="343" height="257" rx="16.5" stroke="#333342"/>
<rect x="23.5" y="779.5" width="343" height="257" rx="16.5" fill="#333342"/>
<g clip-path="url(#clip3_418_6827)">
<mask id="path-14-outside-3_418_6827" maskUnits="userSpaceOnUse" x="24" y="780" width="342" height="201" fill="black">
<rect fill="white" x="24" y="780" width="342" height="201"/>
<path d="M24 780H366V980H24V780Z"/>
</mask>
<path d="M24 780H366V980H24V780Z" fill="#333342"/>
<path d="M24 788C24 783.582 27.5817 780 32 780H358C362.418 780 366 783.582 366 788V980H24V788Z" fill="#333342"/>
</g>
<path d="M24 780H366H24ZM366 981H24V979H366V981ZM24 980V780V980ZM366 780V980V780Z" fill="#333342" mask="url(#path-14-outside-3_418_6827)"/>
<rect x="23.5" y="779.5" width="343" height="257" rx="16.5" stroke="#333342"/>
<rect x="23.5" y="1059.5" width="343" height="257" rx="16.5" fill="#333342"/>
<g clip-path="url(#clip4_418_6827)">
<mask id="path-18-outside-4_418_6827" maskUnits="userSpaceOnUse" x="24" y="1060" width="342" height="201" fill="black">
<rect fill="white" x="24" y="1060" width="342" height="201"/>
<path d="M24 1060H366V1260H24V1060Z"/>
</mask>
<path d="M24 1060H366V1260H24V1060Z" fill="#333342"/>
<path d="M24 1068C24 1063.58 27.5817 1060 32 1060H358C362.418 1060 366 1063.58 366 1068V1260H24V1068Z" fill="#333342"/>
</g>
<path d="M24 1060H366H24ZM366 1261H24V1259H366V1261ZM24 1260V1060V1260ZM366 1060V1260V1060Z" fill="#333342" mask="url(#path-18-outside-4_418_6827)"/>
<rect x="23.5" y="1059.5" width="343" height="257" rx="16.5" stroke="#333342"/>
<rect x="23.5" y="1339.5" width="343" height="257" rx="16.5" fill="#333342"/>
<g clip-path="url(#clip5_418_6827)">
<mask id="path-22-outside-5_418_6827" maskUnits="userSpaceOnUse" x="24" y="1340" width="342" height="201" fill="black">
<rect fill="white" x="24" y="1340" width="342" height="201"/>
<path d="M24 1340H366V1540H24V1340Z"/>
</mask>
<path d="M24 1340H366V1540H24V1340Z" fill="#333342"/>
<path d="M24 1348C24 1343.58 27.5817 1340 32 1340H358C362.418 1340 366 1343.58 366 1348V1540H24V1348Z" fill="#333342"/>
</g>
<path d="M24 1340H366H24ZM366 1541H24V1539H366V1541ZM24 1540V1340V1540ZM366 1340V1540V1340Z" fill="#333342" mask="url(#path-22-outside-5_418_6827)"/>
<rect x="23.5" y="1339.5" width="343" height="257" rx="16.5" stroke="#333342"/>
<rect x="23.5" y="1619.5" width="343" height="257" rx="16.5" fill="#333342"/>
<g clip-path="url(#clip6_418_6827)">
<mask id="path-26-outside-6_418_6827" maskUnits="userSpaceOnUse" x="24" y="1620" width="342" height="201" fill="black">
<rect fill="white" x="24" y="1620" width="342" height="201"/>
<path d="M24 1620H366V1820H24V1620Z"/>
</mask>
<path d="M24 1620H366V1820H24V1620Z" fill="#333342"/>
<path d="M24 1628C24 1623.58 27.5817 1620 32 1620H358C362.418 1620 366 1623.58 366 1628V1820H24V1628Z" fill="#333342"/>
</g>
<path d="M24 1620H366H24ZM366 1821H24V1819H366V1821ZM24 1820V1620V1820ZM366 1620V1820V1620Z" fill="#333342" mask="url(#path-26-outside-6_418_6827)"/>
<rect x="23.5" y="1619.5" width="343" height="257" rx="16.5" stroke="#333342"/>
<defs>
<clipPath id="clip0_418_6827">
<rect x="24" y="24" width="342" height="128" rx="16" fill="white"/>
</clipPath>
<clipPath id="clip1_418_6827">
<path d="M24 220H366V420H24V220Z" fill="white"/>
</clipPath>
<clipPath id="clip2_418_6827">
<path d="M24 500H366V700H24V500Z" fill="white"/>
</clipPath>
<clipPath id="clip3_418_6827">
<path d="M24 780H366V980H24V780Z" fill="white"/>
</clipPath>
<clipPath id="clip4_418_6827">
<path d="M24 1060H366V1260H24V1060Z" fill="white"/>
</clipPath>
<clipPath id="clip5_418_6827">
<path d="M24 1340H366V1540H24V1340Z" fill="white"/>
</clipPath>
<clipPath id="clip6_418_6827">
<path d="M24 1620H366V1820H24V1620Z" fill="white"/>
</clipPath>
</defs>
</svg>
