<svg width="40" height="40" viewBox="0 0 40 40" fill="none" xmlns="http://www.w3.org/2000/svg">
<path d="M28.125 28H11.875C10.8395 28 10 27.1046 10 26V14C10 12.8954 10.8395 12 11.875 12H28.125C29.1605 12 30 12.8954 30 14V26C30 27.1046 29.1605 28 28.125 28ZM14.375 14.3333C13.1669 14.3333 12.1875 15.378 12.1875 16.6667C12.1875 17.9553 13.1669 19 14.375 19C15.5831 19 16.5625 17.9553 16.5625 16.6667C16.5625 15.378 15.5831 14.3333 14.375 14.3333ZM12.5 25.3333H27.5V20.6667L24.0814 17.0202C23.8984 16.825 23.6016 16.825 23.4185 17.0202L18.125 22.6667L15.9564 20.3535C15.7734 20.1583 15.4766 20.1583 15.2935 20.3535L12.5 23.3333V25.3333Z" fill="currentColor"/>
</svg>
