<svg width="24" height="24" viewBox="0 0 24 24" fill="none" xmlns="http://www.w3.org/2000/svg">
<path d="M8.66672 8.66646H15.3334V10.5265C15.3334 10.8265 15.6934 10.9731 15.9001 10.7598L18.4267 8.23313C18.5601 8.0998 18.5601 7.89313 18.4267 7.7598L15.9001 5.23313C15.6934 5.02646 15.3334 5.17313 15.3334 5.47313V7.33313H8.00006C7.63339 7.33313 7.33339 7.63313 7.33339 7.9998V10.6665C7.33339 11.0331 7.63339 11.3331 8.00006 11.3331C8.36672 11.3331 8.66672 11.0331 8.66672 10.6665V8.66646ZM15.3334 15.3331H8.66672V13.4731C8.66672 13.1731 8.30672 13.0265 8.10006 13.2398L5.57339 15.7665C5.44006 15.8998 5.44006 16.1065 5.57339 16.2398L8.10006 18.7665C8.30672 18.9731 8.66672 18.8265 8.66672 18.5265V16.6665H16.0001C16.3667 16.6665 16.6667 16.3665 16.6667 15.9998V13.3331C16.6667 12.9665 16.0001 12.6665 16.0001 12.6665C16.0001 12.6665 15.3334 12.9665 15.3334 13.3331V15.3331Z" fill="#CDD4E3"/>
</svg>
