<svg width="24" height="24" viewBox="0 0 24 24" fill="none" xmlns="http://www.w3.org/2000/svg">
<path d="M16.7403 11.0676L11.2402 15.8172C10.7594 16.2325 10 15.8965 10 15.2496V12.6191C6.60413 13.0107 5.27806 14.4583 6.48156 18.3071C6.63888 18.8101 6.03081 19.1996 5.60416 18.8893C4.23694 17.8948 3 15.9927 3 14.0727C3 9.96843 5.96306 8.65652 10 8.33677V5.75046C10 5.10462 10.7588 4.76705 11.2402 5.18283L16.7403 9.93237C17.0868 10.2316 17.0863 10.7688 16.7403 11.0676V11.0676ZM20.7403 9.93237L15.2402 5.18283C14.7588 4.76705 14 5.10462 14 5.75046V6.24477L17.394 9.17559C17.5842 9.3398 17.7369 9.54311 17.8414 9.77165C17.946 10.0002 18.0001 10.2486 18 10.4999C18.0001 10.7513 17.946 10.9997 17.8414 11.2283C17.7369 11.4569 17.5842 11.6602 17.3939 11.8245L14 14.7552V15.2496C14 15.8965 14.7594 16.2325 15.2402 15.8172L20.7403 11.0676C21.0863 10.7688 21.0868 10.2316 20.7403 9.93237Z" fill="#CDD4E3"/>
</svg>
